<?xml version="1.0" standalone="no"?>
<!DOCTYPE svg PUBLIC "-//W3C//DTD SVG 20010904//EN"
 "http://www.w3.org/TR/2001/REC-SVG-20010904/DTD/svg10.dtd">
<svg version="1.0" xmlns="http://www.w3.org/2000/svg"
 width="500.000000pt" height="500.000000pt" viewBox="0 0 500.000000 500.000000"
 preserveAspectRatio="xMidYMid meet">

<g transform="translate(0.000000,500.000000) scale(0.100000,-0.100000)"
fill="#000000" stroke="none">
<path d="M2460 4076 c6 -6 3 -14 -8 -22 -18 -14 -54 -18 -66 -7 -3 4 -15 8
-26 10 -13 2 -18 -2 -14 -12 9 -21 -40 -42 -60 -26 -8 7 -20 10 -25 7 -5 -4
-12 -2 -16 4 -11 17 -23 11 -18 -10 7 -25 -44 -41 -61 -19 -6 8 -24 15 -39 16
-25 2 -27 0 -16 -14 24 -29 -42 -58 -69 -31 -9 9 -12 9 -12 -1 0 -8 -6 -11
-15 -7 -8 3 -14 2 -14 -2 4 -22 -4 -34 -26 -42 -26 -10 -58 -3 -50 10 3 5 -4
6 -15 3 -11 -3 -20 -13 -20 -23 0 -22 -18 -37 -81 -66 l-51 -24 24 -31 c13
-17 39 -53 58 -79 64 -87 402 -524 429 -555 15 -16 32 -42 38 -56 10 -24 9
-28 -13 -38 -31 -14 -67 -14 -59 -1 3 6 16 10 28 11 22 0 -214 120 -448 227
-315 144 -401 182 -412 182 -25 0 -167 -263 -212 -396 -45 -131 -91 -357 -91
-447 0 -34 -1 -36 -24 -27 -19 7 -28 4 -44 -13 -36 -38 -44 -74 -26 -109 15
-29 15 -35 -4 -82 -19 -47 -26 -81 -23 -113 1 -7 14 -13 30 -13 44 0 61 -23
62 -83 2 -84 -2 -111 -17 -128 -8 -9 32 7 88 35 366 183 900 296 1400 296 145
0 441 -29 613 -61 211 -38 499 -126 685 -209 130 -58 174 -87 60 -40 -41 17
-80 28 -88 25 -7 -3 -10 0 -6 6 3 6 -1 10 -12 9 -36 -4 -55 0 -49 10 3 5 0 7
-7 5 -8 -3 -44 6 -81 20 -76 28 -369 104 -497 128 -407 77 -813 79 -1255 6
-183 -30 -353 -75 -548 -146 -65 -24 -123 -40 -129 -37 -7 4 -8 2 -4 -4 7 -11
-7 -16 -41 -15 -7 1 -11 -3 -8 -7 5 -9 -45 -33 -53 -25 -3 3 1 5 8 5 7 0 11 2
8 5 -8 9 -38 -6 -32 -16 3 -5 -3 -6 -12 -2 -11 4 -15 2 -11 -4 4 -6 0 -10 -8
-9 -7 0 -14 -3 -14 -8 1 -5 -5 -13 -13 -17 -10 -7 -10 -13 -2 -26 9 -14 22
-17 59 -15 40 3 47 1 42 -12 -9 -24 7 -19 34 10 34 37 116 74 166 74 49 0 94
-32 123 -91 24 -47 25 -44 -3 -45 -13 -1 -42 -11 -65 -22 -39 -19 -42 -19 -42
-3 0 23 -31 51 -57 51 -50 0 -114 -84 -139 -183 -22 -82 -15 -198 13 -235 56
-75 158 -40 184 63 10 41 17 49 60 70 27 14 51 25 54 25 14 0 2 -81 -19 -126
-47 -100 -134 -170 -237 -189 -39 -7 -84 7 -117 37 -12 12 -22 16 -22 10 0 -7
26 -29 57 -49 52 -35 61 -38 119 -36 35 2 65 -1 68 -5 7 -12 -78 -74 -151
-111 -34 -17 -65 -35 -68 -41 -15 -25 9 -22 68 7 54 27 152 67 210 87 27 9 48
-4 42 -25 -8 -24 -11 -24 71 7 97 36 346 99 494 123 343 57 755 54 1085 -8
203 -39 589 -150 573 -166 -2 -2 -50 12 -108 32 -69 23 -128 36 -172 38 -36 1
-70 5 -75 8 -18 12 -199 47 -318 63 -260 34 -699 36 -913 3 -41 -6 -86 -8
-100 -5 -21 5 -23 4 -12 -4 11 -8 6 -9 -22 -7 -21 3 -36 1 -33 -3 5 -9 -121
-34 -134 -26 -26 16 -367 -85 -457 -135 -29 -17 -55 -36 -58 -44 -3 -8 -14
-15 -25 -15 -11 0 -23 -4 -26 -10 -9 -15 3 -13 80 16 221 81 280 95 302 73 7
-7 20 -8 34 -3 23 7 59 7 68 -2 2 -2 -2 -10 -9 -19 -18 -21 -12 -19 71 20 82
38 262 89 379 105 84 12 155 3 155 -20 0 -12 -15 -14 -75 -12 -51 2 -104 -3
-165 -17 -105 -25 -385 -113 -385 -122 0 -4 21 -14 48 -24 26 -10 83 -34 127
-55 44 -20 108 -50 143 -65 34 -15 61 -30 58 -32 -2 -2 -37 8 -77 22 -45 15
-68 20 -59 11 8 -7 44 -23 80 -34 172 -53 238 -53 280 -2 l25 30 44 -51 c68
-79 167 -112 271 -90 38 8 69 26 120 67 l69 56 23 -26 c52 -60 167 -38 425 80
163 74 170 77 242 76 67 -1 77 -4 99 -27 13 -15 21 -33 18 -41 -4 -10 -2 -13
6 -8 8 5 9 2 5 -10 -4 -10 -7 -20 -7 -22 0 -3 -19 -14 -42 -24 -33 -15 -38
-20 -20 -20 34 0 60 17 77 50 18 35 21 84 4 60 -9 -12 -10 -10 -6 8 4 19 3 21
-8 12 -11 -9 -12 -7 -9 7 3 11 -4 27 -16 38 -18 16 -43 21 -125 26 -56 4 -111
12 -121 19 -16 10 -16 11 -1 6 26 -8 21 13 -6 23 -13 5 -29 17 -37 26 -12 15
-12 19 5 31 26 19 35 18 186 -20 134 -35 198 -55 254 -80 47 -22 139 -56 150
-56 20 0 -162 106 -267 156 -32 14 -58 32 -58 39 0 23 33 27 59 7 15 -10 45
-22 69 -25 23 -4 61 -10 83 -13 51 -8 50 9 -2 44 -41 28 -48 42 -20 42 11 0
31 12 44 26 l24 26 21 -37 c14 -22 36 -42 59 -51 21 -8 52 -22 69 -31 17 -9
37 -14 45 -11 22 8 -42 62 -89 76 -27 8 -43 20 -48 35 -3 12 -25 74 -47 137
-37 104 -42 112 -51 90 -17 -38 -87 -159 -95 -165 -6 -3 -98 28 -120 42 -2 1
6 14 16 30 11 15 46 73 77 128 32 55 64 105 73 112 20 15 18 19 -91 256 -25
53 -52 100 -60 103 -28 11 -17 23 12 14 108 -33 153 -53 148 -66 -3 -7 10 -46
28 -85 l32 -72 29 49 c16 27 28 55 26 63 -2 10 3 12 16 6 10 -4 43 -16 73 -27
69 -25 69 -26 43 -46 -28 -21 -123 -181 -123 -205 0 -24 51 -169 58 -163 2 3
-1 28 -8 56 -9 39 -9 54 0 65 6 8 9 23 5 35 -8 26 6 65 52 142 57 96 77 186
48 218 -19 21 -39 83 -23 74 7 -5 8 8 4 37 -10 68 -9 93 4 97 7 3 21 13 31 23
26 26 14 74 -33 141 -10 14 -6 21 20 46 39 37 41 72 7 106 -22 22 -25 34 -25
93 -1 207 -122 569 -258 766 -113 164 -319 355 -470 436 -43 23 -21 4 51 -44
155 -105 305 -250 402 -388 141 -202 250 -524 256 -756 2 -69 -1 -85 -14 -93
-10 -5 -17 -8 -17 -6 -11 201 -28 294 -82 457 -47 140 -114 277 -191 390 -73
107 -255 284 -361 351 -48 30 -122 78 -164 105 -97 64 -257 142 -331 162 -63
17 -367 25 -351 9z m365 -59 c105 -49 207 -177 234 -298 53 -227 -70 -484
-276 -582 -62 -29 -76 -32 -168 -32 -94 0 -104 2 -175 36 -159 76 -240 208
-240 389 1 149 46 270 139 372 61 66 144 117 227 137 69 18 195 7 259 -22z
m271 -180 c133 -145 125 -399 -18 -584 -48 -62 -131 -133 -156 -133 -12 0 -9
5 8 16 86 57 151 145 200 268 62 155 38 321 -63 434 -29 31 -58 61 -64 65 -7
4 -13 13 -13 18 0 16 53 -26 106 -84z m11 -279 c-2 -13 -4 -3 -4 22 0 25 2 35
4 23 2 -13 2 -33 0 -45z m294 -2 c21 -14 21 -16 5 -22 -10 -4 -24 -20 -31 -37
l-12 -29 -11 30 c-6 16 -19 33 -30 36 -17 6 -16 9 12 40 27 29 32 31 38 16 4
-10 17 -25 29 -34z m-107 -175 c-2 -3 -12 3 -22 13 -16 17 -16 18 5 5 12 -7
20 -15 17 -18z m42 -32 c3 -6 0 -15 -7 -20 -21 -13 -27 -11 -39 11 -9 17 -8
20 14 20 14 0 28 -5 32 -11z m31 -66 c5 -14 -35 -24 -43 -11 -7 11 15 29 30
25 6 -2 11 -8 13 -14z m-107 -58 c0 -23 -16 -17 -28 10 -11 24 -10 25 8 15 11
-6 20 -17 20 -25z m-1530 -30 c0 -8 -4 -15 -10 -15 -5 0 -7 7 -4 15 4 8 8 15
10 15 2 0 4 -7 4 -15z m1714 0 c44 -29 51 -65 51 -275 0 -179 -2 -198 -21
-230 -26 -45 -63 -59 -97 -37 -39 26 -57 123 -57 313 0 87 -2 155 -5 152 -3
-3 -12 -52 -19 -109 l-13 -104 -2 83 c0 45 -5 82 -10 82 -5 0 -13 -35 -17 -77
l-8 -78 -12 65 c-6 36 -12 59 -13 53 0 -7 -19 -22 -40 -33 -24 -12 -43 -31
-49 -47 -10 -26 -10 -25 -11 18 -1 25 5 52 12 61 6 9 50 43 97 76 47 34 96 70
110 81 30 24 72 27 104 6z m-1737 -79 c-7 -21 -37 -19 -37 2 0 15 5 19 20 15
12 -3 19 -11 17 -17z m1200 -328 c4 -266 4 -266 -18 -287 -30 -28 -44 -27 -25
1 14 19 16 62 16 269 0 190 -3 249 -13 257 -9 8 -44 7 -122 -3 -295 -39 -348
-45 -450 -55 -60 -6 -114 -16 -120 -21 -6 -6 -11 -96 -13 -216 -3 -182 -1
-207 14 -224 21 -23 7 -25 -24 -3 -22 15 -22 19 -22 233 0 158 3 222 13 234 8
12 37 20 92 26 44 6 163 20 265 32 102 12 226 27 275 34 138 18 128 39 132
-277z m-1232 272 c3 -5 1 -10 -4 -10 -6 0 -11 5 -11 10 0 6 2 10 4 10 3 0 8
-4 11 -10z m175 -33 c9 -18 32 -42 55 -54 26 -15 33 -23 21 -23 -27 0 -86 -66
-87 -98 0 -26 -1 -26 -13 7 -13 36 -58 81 -82 81 -24 0 -15 14 26 42 22 15 42
39 46 53 8 33 16 31 34 -8z m1240 -11 c-12 -33 -16 -153 -6 -193 11 -43 -8
-44 -29 -3 -10 19 -16 59 -17 110 -1 84 9 110 43 110 15 0 17 -4 9 -24z
m-1413 8 c-3 -3 -12 -4 -19 -1 -8 3 -5 6 6 6 11 1 17 -2 13 -5z m-4 -60 c-8
-21 -23 -17 -23 6 0 13 5 18 14 14 8 -3 12 -12 9 -20z m1337 3 c0 -27 -17 -47
-41 -47 -10 0 -20 -8 -22 -17 -3 -10 -5 1 -6 25 -1 35 3 44 22 52 36 14 47 11
47 -13z m-595 -17 c3 -5 2 -10 -4 -10 -5 0 -13 5 -16 10 -3 6 -2 10 4 10 5 0
13 -4 16 -10z m303 -81 c2 -46 0 -127 -4 -179 -7 -84 -8 -90 -15 -55 -4 22 -8
105 -8 183 -1 111 2 143 12 140 8 -3 13 -33 15 -89z m82 -69 c0 -100 -4 -160
-10 -160 -5 0 -10 1 -10 3 0 1 -3 66 -7 143 -6 141 -3 174 17 174 6 0 10 -57
10 -160z m-168 113 c7 -58 -4 -313 -13 -319 -5 -3 -9 76 -9 175 0 100 4 181 9
181 5 0 11 -17 13 -37z m-78 4 c0 -9 -1 -87 -2 -172 -1 -96 -6 -155 -12 -155
-6 0 -10 65 -10 176 0 136 3 175 13 172 6 -3 12 -12 11 -21z m-83 0 c-1 -4 -1
-82 -1 -174 0 -106 -3 -164 -10 -157 -7 7 -15 258 -10 337 0 5 5 7 11 5 6 -2
10 -7 10 -11z m-805 -36 c-11 -18 -36 -13 -36 7 0 10 3 22 7 26 10 10 37 -20
29 -33z m728 30 c9 -14 -6 -281 -16 -281 -4 0 -8 65 -8 145 0 131 6 165 24
136z m-126 -43 c18 -18 15 -41 -4 -34 -9 4 -23 1 -31 -5 -22 -19 -36 3 -17 29
17 25 34 28 52 10z m725 -25 c-7 -2 -19 -2 -25 0 -7 3 -2 5 12 5 14 0 19 -2
13 -5z m309 -120 c10 -9 18 -22 18 -30 0 -8 -21 0 -57 24 -74 48 -143 102
-143 113 0 9 153 -81 182 -107z m-1637 87 c0 -8 -10 -16 -22 -18 -22 -3 -32
16 -16 32 12 11 38 2 38 -14z m600 -30 c-3 -5 -21 -10 -38 -10 -24 0 -28 3
-17 10 20 13 63 13 55 0z m769 -42 c11 -43 7 -233 -6 -246 -7 -7 -14 -12 -17
-12 -4 0 -5 63 -3 140 3 131 12 170 26 118z m-1366 -9 c4 -19 -27 -34 -41 -20
-14 14 0 43 20 39 10 -2 19 -10 21 -19z m615 -4 c1 -5 -17 -11 -40 -13 -24 -2
-43 1 -43 7 0 20 79 26 83 6z m-319 -78 c7 -4 2 -14 -14 -26 -22 -18 -25 -18
-36 -3 -10 14 -10 20 2 33 8 8 14 22 14 30 0 9 5 7 12 -6 6 -11 16 -23 22 -28z
m-289 24 c6 -10 -21 -41 -36 -41 -10 0 -12 33 -2 43 9 10 31 9 38 -2z m609
-10 c3 -5 -7 -11 -22 -13 -15 -3 -35 -9 -44 -13 -13 -5 -18 -3 -18 8 0 8 6 18
13 20 21 9 66 7 71 -2z m940 -67 c25 -10 27 -13 10 -14 -24 0 -53 -29 -71 -68
-11 -27 -11 -27 -12 -4 -1 13 -14 37 -31 52 l-30 28 24 16 c14 8 28 25 32 38
6 22 7 21 27 -6 11 -16 34 -34 51 -42z m-424 32 c0 -3 -4 -8 -10 -11 -5 -3
-10 -1 -10 4 0 6 5 11 10 11 6 0 10 -2 10 -4z m-1114 -51 c-3 -9 -14 -15 -23
-13 -24 4 -29 35 -6 40 24 6 37 -7 29 -27z m1719 0 c0 -5 -10 -11 -22 -13 -16
-2 -23 2 -23 13 0 11 7 15 23 13 12 -2 22 -7 22 -13z m-2215 -75 c77 -39 140
-75 140 -80 0 -14 -12 -12 -53 5 -43 18 -50 19 -42 5 3 -5 0 -10 -7 -10 -17
-1 17 -21 61 -36 18 -6 29 -14 23 -18 -12 -7 -262 119 -279 142 -18 22 -16 62
2 62 8 0 78 -32 155 -70z m2820 62 c0 -5 -29 -23 -65 -42 -36 -19 -65 -37 -65
-41 0 -11 -155 -69 -187 -69 -7 0 -10 7 -7 15 6 14 204 121 253 136 35 10 71
11 71 1z m-1192 -29 c-10 -2 -28 -2 -40 0 -13 2 -5 4 17 4 22 1 32 -1 23 -4z
m1190 -5 c-2 -6 -10 -14 -16 -16 -7 -2 -10 2 -6 12 7 18 28 22 22 4z m-2301
-14 c5 -14 -11 -33 -28 -34 -10 0 -20 31 -13 41 9 15 34 10 41 -7z m1664 8
c12 -5 14 -13 8 -29 -5 -13 -12 -23 -17 -23 -17 0 -33 27 -26 44 7 17 10 18
35 8z m-758 -9 c-7 -2 -21 -2 -30 0 -10 3 -4 5 12 5 17 0 24 -2 18 -5z m-146
-44 c-19 -11 -400 -58 -471 -59 -62 0 -30 20 50 31 61 9 348 35 414 37 22 1
23 0 7 -9z m1453 1 c0 -5 -2 -10 -4 -10 -3 0 -8 5 -11 10 -3 6 -1 10 4 10 6 0
11 -4 11 -10z m-2187 -24 c8 -20 -20 -43 -35 -28 -14 14 -3 42 16 42 7 0 16
-6 19 -14z m1035 7 c-10 -2 -28 -2 -40 0 -13 2 -5 4 17 4 22 1 32 -1 23 -4z
m586 -2 c3 -5 -2 -19 -12 -31 -16 -20 -19 -20 -31 -6 -7 9 -11 23 -7 31 6 16
41 21 50 6z m506 -14 c-78 -39 -152 -69 -157 -63 -6 5 68 44 94 50 10 1 34 10
53 19 53 25 61 19 10 -6z m-855 -3 c85 -8 120 -23 55 -24 -51 0 -210 26 -219
36 -3 4 17 4 44 1 28 -4 82 -9 120 -13z m-1960 -70 c-9 -24 -21 -41 -26 -38
-11 6 -5 29 19 84 22 51 29 11 7 -46z m2956 29 c29 -68 14 -90 -16 -24 -28 58
-30 71 -15 71 6 0 20 -21 31 -47z m-2903 -36 c-10 -46 -13 -51 -25 -46 -5 2
-5 28 0 57 7 42 11 51 22 42 10 -8 10 -21 3 -53z m2862 11 c7 -26 8 -44 2 -50
-13 -13 -18 -2 -26 56 -9 59 8 55 24 -6z m-2200 23 c0 -12 -28 -22 -34 -12 -3
5 -3 11 1 15 9 9 33 7 33 -3z m1554 -16 c-5 -13 -44 -9 -44 4 0 14 11 19 30
14 10 -3 16 -11 14 -18z m606 -42 c0 -33 -4 -43 -16 -43 -11 0 -14 5 -10 16 3
9 6 34 6 57 0 31 3 38 10 27 5 -8 10 -34 10 -57z m-2794 -41 c-13 -13 -17 9
-9 55 l8 48 3 -49 c2 -26 1 -51 -2 -54z m2735 -5 c-10 -9 -11 -8 -5 6 3 10 9
15 12 12 3 -3 0 -11 -7 -18z m-1271 -76 c0 -33 -4 -63 -10 -66 -5 -3 -10 -1
-10 4 0 7 -33 11 -90 11 l-90 0 0 -81 0 -82 75 6 75 5 0 -61 0 -62 -70 3 -70
4 0 -60 c0 -33 -3 -74 -6 -91 l-6 -31 53 1 c30 0 75 4 102 8 l47 8 0 -61 0
-61 -164 0 c-110 0 -162 3 -156 10 12 15 12 613 0 620 -28 17 1 25 103 28 61
1 136 4 165 5 l52 2 0 -59z m318 31 l64 -7 1 -63 c2 -62 -1 -70 -18 -53 -6 5
-47 11 -92 15 l-83 6 0 -74 0 -75 80 -7 81 -7 -3 -55 -3 -56 -55 2 c-30 2 -62
5 -71 8 -14 4 -17 -12 -23 -119 -4 -68 -4 -131 0 -140 5 -15 -2 -16 -65 -14
-66 2 -84 8 -62 21 9 6 7 614 -3 623 -3 4 -6 9 -6 13 0 5 123 -3 258 -18z
m-726 -319 c-1 -181 -6 -329 -10 -330 -4 -1 -31 -3 -60 -6 l-53 -4 -81 161
c-44 89 -87 177 -94 196 -12 31 -13 10 -9 -174 3 -114 7 -212 10 -215 2 -4 -8
-6 -23 -3 -15 2 -45 -3 -67 -10 l-40 -14 3 314 c2 208 -1 318 -8 327 -8 9 4
16 52 28 58 14 64 14 73 -1 6 -9 49 -93 98 -187 76 -148 87 -165 88 -135 3 72
-3 336 -7 352 -5 17 5 19 106 26 l26 2 -4 -327z m963 282 c19 -4 20 -11 17
-278 l-3 -273 64 -12 c36 -7 74 -12 86 -12 20 0 22 -4 19 -57 -2 -46 -6 -57
-18 -54 -8 2 -73 15 -145 29 l-130 26 0 326 0 327 45 -9 c25 -5 54 -11 65 -13z
m-1477 -370 l0 -325 -26 -6 c-15 -3 -40 -10 -56 -15 -16 -5 -32 -9 -35 -9 -3
0 -5 140 -3 311 2 210 -1 315 -8 324 -8 10 2 16 47 28 32 8 63 15 70 16 9 1
12 -80 11 -324z m1807 296 l40 -10 -3 -325 -3 -325 -41 15 c-22 7 -50 14 -62
14 -21 0 -21 0 -21 329 l0 328 25 -8 c14 -4 43 -13 65 -18z m-655 -626 c75 -6
310 -44 390 -61 87 -19 291 -76 287 -80 -2 -2 -59 10 -127 27 -79 19 -134 28
-153 23 -21 -4 -27 -3 -22 6 5 8 -2 10 -27 5 -25 -5 -38 -2 -47 9 -10 12 -16
13 -32 3 -15 -9 -23 -9 -39 1 -11 7 -31 10 -45 6 -16 -4 -30 0 -40 10 -10 10
-25 14 -40 10 -13 -3 -33 0 -45 6 -16 8 -25 9 -33 1 -7 -7 -14 -7 -24 0 -7 7
-13 8 -13 4 0 -4 -7 -2 -15 5 -12 10 -19 10 -27 2 -15 -15 -51 -15 -66 0 -9 9
-18 8 -37 -2 -18 -10 -31 -11 -43 -4 -19 11 -192 11 -234 -1 -15 -4 -35 -2
-48 5 -14 7 -25 8 -33 2 -14 -12 -103 -19 -113 -10 -3 4 -17 0 -30 -9 -19 -12
-27 -13 -38 -4 -12 10 -20 9 -41 -5 -23 -15 -30 -16 -47 -5 -14 9 -23 9 -27 2
-6 -9 -56 -17 -151 -26 -14 -1 -29 -3 -35 -4 -12 -4 -40 -7 -80 -9 -24 -2 -27
-4 -15 -13 11 -8 8 -9 -15 -4 -19 3 -69 -6 -135 -24 -58 -16 -106 -28 -108
-26 -7 6 185 63 318 94 110 26 381 64 525 74 64 5 433 -1 505 -8z m-1553 -151
c-3 -3 -12 -4 -19 -1 -8 3 -5 6 6 6 11 1 17 -2 13 -5z m1312 -64 c157 -45 217
-226 120 -366 -53 -78 -136 -106 -242 -85 -124 26 -207 158 -177 283 32 130
167 206 299 168z m-862 -16 c-3 -3 -12 -4 -19 -1 -8 3 -5 6 6 6 11 1 17 -2 13
-5z m1351 -29 c140 -34 192 -54 220 -81 17 -18 19 -18 -75 10 -170 51 -321 79
-394 73 -43 -4 -71 -2 -75 5 -26 41 141 38 324 -7z m-874 -55 c14 -5 26 -16
26 -25 0 -18 -14 -19 -39 -3 -14 9 -26 8 -51 -2 -70 -29 -93 -131 -43 -190 29
-35 65 -53 88 -44 20 8 29 42 15 59 -15 18 1 20 18 3 19 -19 14 -45 -13 -66
-60 -47 -153 25 -162 126 -5 56 19 101 69 132 37 22 55 24 92 10z m761 -42
c49 -58 40 -156 -18 -209 -47 -43 -113 -37 -130 12 -6 19 10 39 32 39 11 0 10
-4 -5 -14 -17 -13 -17 -16 -4 -29 30 -29 65 -29 94 1 50 53 53 137 5 188 -24
26 -67 32 -87 12 -15 -15 -38 4 -27 22 23 37 101 25 140 -22z m329 -24 c30
-12 12 -44 -25 -44 -5 0 -9 11 -9 25 0 26 7 29 34 19z m-1371 -20 c3 -4 -1
-13 -9 -21 -11 -12 -18 -12 -29 -3 -8 7 -12 16 -9 21 6 10 38 12 47 3z m54
-10 c3 -8 0 -21 -6 -27 -9 -9 -11 -8 -6 6 4 10 2 17 -4 17 -6 0 -11 5 -11 10
0 16 20 12 27 -6z m1113 -3 c0 -25 -20 -38 -31 -20 -15 23 -10 39 11 39 13 0
20 -7 20 -19z m53 -1 c-3 -11 -9 -17 -14 -14 -14 8 -10 34 5 34 9 0 12 -7 9
-20z m221 -2 c-7 -18 -102 -59 -110 -47 -3 5 19 20 48 34 60 28 69 30 62 13z
m-1159 -11 c24 -18 3 -32 -25 -17 -16 8 -22 7 -32 -10 -14 -22 -28 -26 -28 -8
0 18 31 48 50 48 9 0 24 -6 35 -13z m703 -15 c3 -21 1 -22 -17 -13 -11 6 -30
11 -43 11 -23 1 -23 1 -3 16 28 21 59 14 63 -14z m267 -72 c-3 -5 -12 -10 -18
-10 -7 0 -6 4 3 10 19 12 23 12 15 0z m-62 -21 c-14 -14 -138 -59 -161 -59 -9
1 15 11 53 24 39 12 79 28 90 34 25 15 32 15 18 1z"/>
<path d="M2643 3985 c-125 -54 -73 -285 63 -285 74 0 149 95 141 178 -10 93
-113 147 -204 107z m137 -65 c18 -12 2 -12 -25 0 -13 6 -15 9 -5 9 8 0 22 -4
30 -9z m11 -41 c17 -11 28 -24 25 -27 -3 -3 -14 2 -24 11 -10 9 -45 23 -78 32
l-59 15 53 -5 c32 -2 65 -13 83 -26z m-42 -13 c15 -8 34 -22 42 -32 12 -14 7
-14 -26 4 -22 11 -60 25 -85 30 l-45 10 43 1 c24 0 55 -5 71 -13z m-28 -26
c20 -6 44 -19 54 -30 21 -23 9 -27 -15 -5 -9 8 -45 21 -81 29 -51 11 -57 14
-29 15 19 0 51 -4 71 -9z m24 -52 c11 -12 13 -16 4 -10 -9 7 -34 19 -55 27
l-39 15 35 -5 c19 -3 44 -15 55 -27z m-60 2 c3 -5 2 -10 -4 -10 -5 0 -13 5
-16 10 -3 6 -2 10 4 10 5 0 13 -4 16 -10z"/>
<path d="M2351 3855 c-47 -43 -71 -90 -71 -142 1 -50 26 -82 75 -93 91 -21
137 -7 175 55 22 36 25 72 9 129 -16 59 -49 86 -104 86 -37 0 -51 -6 -84 -35z
m94 -55 c3 -5 18 -11 33 -11 21 -1 23 -2 7 -6 -11 -3 -26 -10 -34 -17 -12 -9
-13 -8 -8 7 4 11 3 16 -3 12 -6 -3 -10 -1 -10 6 0 19 -28 -9 -66 -66 -38 -56
-44 -54 -14 4 18 37 63 81 81 81 4 0 11 -4 14 -10z m-21 -79 c-8 -17 -20 -33
-25 -37 -6 -3 -1 14 10 37 12 24 16 36 9 25 -7 -10 -21 -28 -31 -40 l-18 -21
12 25 c27 56 42 72 50 57 5 -9 2 -27 -7 -46z m56 45 c0 -2 -8 -10 -17 -17 -16
-13 -17 -12 -4 4 13 16 21 21 21 13z m-9 -44 c-17 -22 -37 -45 -46 -52 -22
-19 -19 6 4 29 11 11 16 23 13 27 -4 4 -2 4 4 1 6 -4 19 2 29 13 31 34 28 22
-4 -18z m19 -21 c-5 -11 -15 -23 -21 -27 -6 -3 -3 5 6 20 20 30 30 35 15 7z"/>
<path d="M2833 3721 c-101 -73 -116 -194 -35 -283 35 -39 38 -40 89 -36 33 3
61 12 74 24 56 50 76 171 40 249 -23 51 -41 66 -88 72 -31 4 -46 -1 -80 -26z
m93 -125 l17 -54 -27 -47 c-15 -26 -30 -44 -33 -42 -2 3 8 23 22 46 l27 40
-20 61 c-12 33 -17 58 -12 55 5 -3 17 -30 26 -59z m30 -6 c11 -45 11 -56 -1
-79 -16 -29 -19 -24 -6 11 6 16 3 42 -9 82 -10 32 -14 54 -8 48 6 -6 17 -34
24 -62z m-57 -2 c9 -26 9 -43 2 -55 -9 -15 -10 -11 -11 19 0 20 -5 49 -11 65
-5 15 -6 24 -1 18 5 -5 15 -27 21 -47z m-57 -70 c-9 -30 -10 -27 -10 32 0 59
1 62 10 33 8 -23 8 -43 0 -65z m37 37 c1 -17 -1 -17 -9 -5 -5 8 -9 26 -9 40 0
23 1 23 9 5 5 -11 9 -29 9 -40z m-72 -22 c-2 -16 -4 -5 -4 22 0 28 2 40 4 28
2 -13 2 -35 0 -50z m63 -21 c0 -10 -7 -27 -15 -38 -13 -17 -13 -15 -3 19 12
41 18 47 18 19z"/>
<path d="M2590 3666 c-63 -20 -93 -121 -47 -164 48 -45 116 -40 147 11 26 42
25 76 -2 117 -29 41 -54 51 -98 36z m60 -66 c18 -33 -8 -75 -45 -75 -27 0 -30
4 -33 33 -2 18 2 40 9 48 17 21 57 17 69 -6z"/>
<path d="M2590 3564 c0 -9 7 -14 17 -12 25 5 28 28 4 28 -12 0 -21 -6 -21 -16z"/>
<path d="M2319 3565 c-78 -43 -75 -200 6 -263 57 -45 140 -37 165 16 22 49 25
138 5 182 -32 70 -112 100 -176 65z m81 -111 c0 -12 9 -33 20 -47 24 -31 26
-45 3 -26 -20 17 -43 71 -43 101 0 19 2 20 10 8 5 -8 10 -25 10 -36z m47 -27
c5 1 9 -7 9 -18 0 -10 -2 -19 -3 -19 -9 0 -43 68 -42 85 0 13 5 8 14 -15 7
-19 17 -34 22 -33z m-77 12 c8 -23 23 -53 34 -68 l20 -26 -22 19 c-21 18 -62
88 -62 106 0 25 18 6 30 -31z m13 -92 c23 -21 33 -34 22 -28 -42 20 -86 77
-90 117 l-5 39 15 -45 c10 -28 31 -59 58 -83z m96 89 c-3 -3 -11 5 -18 17 -13
21 -12 21 5 5 10 -10 16 -20 13 -22z"/>
<path d="M3015 3449 c-4 -6 -5 -12 -2 -15 2 -3 7 2 10 11 7 17 1 20 -8 4z"/>
<path d="M2639 3441 c-72 -23 -119 -87 -119 -162 0 -35 6 -48 39 -80 33 -34
45 -39 82 -39 121 1 203 106 155 198 -35 67 -100 101 -157 83z m61 -51 c-8 -5
-24 -9 -35 -9 l-20 0 20 9 c11 5 27 9 35 9 13 1 13 0 0 -9z m0 -40 c-37 -12
-92 -12 -85 0 3 6 30 10 58 9 41 -1 47 -3 27 -9z m15 -30 c-11 -5 -40 -8 -65
-8 l-45 1 45 7 c25 4 54 7 65 8 l20 1 -20 -9z m0 -30 c-3 -5 -30 -9 -58 -8
l-52 1 50 7 c28 4 54 8 58 8 5 1 5 -2 2 -8z m-54 -38 c-24 -2 -47 0 -52 5 -4
4 15 6 44 3 l52 -5 -44 -3z m-4 -28 c-3 -3 -12 -4 -19 -1 -8 3 -5 6 6 6 11 1
17 -2 13 -5z"/>
<path d="M3369 3138 c-10 -24 -14 -82 -14 -218 0 -161 2 -189 18 -213 22 -34
52 -34 74 0 15 23 18 55 21 208 3 162 1 184 -16 215 -27 49 -64 53 -83 8z"/>
<path d="M1798 2943 c7 -3 16 -2 19 1 4 3 -2 6 -13 5 -11 0 -14 -3 -6 -6z"/>
<path d="M2470 1260 c-100 -18 -161 -92 -161 -195 0 -116 87 -205 200 -205 86
0 142 35 183 115 24 46 28 136 8 175 -41 80 -137 126 -230 110z m62 -102 c14
-42 16 -43 61 -46 26 -2 47 -7 47 -12 0 -4 -16 -21 -35 -37 l-36 -28 15 -42
c8 -24 12 -43 9 -43 -3 0 -21 11 -39 25 -18 14 -36 25 -40 25 -5 0 -23 -15
-42 -32 l-35 -33 6 35 c3 19 8 42 11 50 3 9 -9 26 -34 45 -21 17 -39 33 -40
37 0 4 21 8 48 10 46 3 47 4 62 46 8 23 18 42 21 42 4 0 14 -19 21 -42z"/>
<path d="M3150 3935 c14 -8 30 -14 35 -14 6 0 -1 6 -15 14 -14 8 -29 14 -35
14 -5 0 1 -6 15 -14z"/>
<path d="M1717 3890 c9 -16 21 -30 26 -30 5 0 -1 14 -13 30 -12 17 -24 30 -26
30 -3 0 3 -13 13 -30z"/>
<path d="M3556 3887 c-28 -21 -16 -41 12 -22 22 16 30 35 14 35 -5 0 -16 -6
-26 -13z"/>
<path d="M3505 3880 c3 -5 8 -10 11 -10 2 0 4 5 4 10 0 6 -5 10 -11 10 -5 0
-7 -4 -4 -10z"/>
<path d="M3791 3869 c0 -13 4 -33 9 -44 7 -14 8 -8 3 20 -7 46 -13 59 -12 24z"/>
<path d="M1430 3836 c0 -2 8 -10 18 -17 15 -13 16 -12 3 4 -13 16 -21 21 -21
13z"/>
<path d="M1645 3739 c-51 -38 -62 -49 -49 -49 5 1 29 19 54 40 53 47 51 52 -5
9z"/>
<path d="M1211 3749 c7 -4 17 -5 23 -2 5 4 7 -1 3 -11 -4 -10 -3 -15 3 -11 20
12 10 33 -16 33 -17 0 -22 -3 -13 -9z"/>
<path d="M1260 3736 c0 -2 7 -7 16 -10 8 -3 12 -2 9 4 -6 10 -25 14 -25 6z"/>
<path d="M3664 3725 c11 -8 31 -15 45 -15 25 1 25 1 7 15 -11 8 -31 15 -45 15
-25 -1 -25 -1 -7 -15z"/>
<path d="M3840 3727 c-29 -15 -45 -46 -54 -106 -6 -39 -5 -43 9 -31 9 7 15 29
15 55 0 46 22 75 58 75 11 0 24 5 27 10 9 14 -25 12 -55 -3z"/>
<path d="M1220 3695 c0 -14 -13 -15 -87 -12 -49 3 -100 8 -115 12 -41 11 -34
-10 10 -30 40 -18 87 -43 124 -67 45 -29 137 -60 157 -53 28 9 53 -6 41 -25
-7 -12 -12 -12 -22 -2 -6 6 -16 12 -21 12 -5 0 1 -8 14 -19 l23 -18 38 51 c31
41 35 52 23 59 -8 4 -20 5 -27 1 -6 -4 -8 -3 -5 3 8 12 -31 42 -101 77 -43 22
-52 23 -52 11z m150 -139 c-12 -12 -40 0 -39 16 0 10 2 10 6 1 8 -20 33 -16
27 5 -5 14 -4 15 5 2 6 -9 6 -19 1 -24z"/>
<path d="M1529 3643 c-28 -34 -44 -59 -30 -46 7 6 19 10 25 9 6 -2 8 -1 3 1
-4 3 -4 9 -1 14 3 6 11 5 20 -2 11 -9 14 -9 14 0 0 7 5 9 11 5 8 -4 8 0 0 15
-14 26 -23 26 -42 4z m31 -3 c0 -5 -5 -10 -11 -10 -5 0 -7 5 -4 10 3 6 8 10
11 10 2 0 4 -4 4 -10z"/>
<path d="M1430 3520 c-12 -16 -18 -30 -13 -30 4 0 16 14 25 30 22 39 15 39
-12 0z"/>
<path d="M3910 3501 c0 -5 5 -13 10 -16 6 -3 10 -2 10 4 0 5 -4 13 -10 16 -5
3 -10 2 -10 -4z"/>
<path d="M3910 3450 c-8 -5 -11 -12 -7 -16 4 -4 15 0 24 9 18 18 8 23 -17 7z"/>
<path d="M1166 3404 c-4 -10 -1 -14 6 -12 15 5 23 28 10 28 -5 0 -13 -7 -16
-16z"/>
<path d="M1095 3289 c-10 -15 3 -25 16 -12 7 7 7 13 1 17 -6 3 -14 1 -17 -5z"/>
<path d="M956 3044 c-5 -14 -4 -15 9 -4 17 14 19 20 6 20 -5 0 -12 -7 -15 -16z"/>
<path d="M3737 1714 c-13 -13 -7 -27 6 -15 8 6 16 9 18 7 10 -10 59 -14 59 -5
0 5 -11 9 -24 9 -13 0 -31 2 -38 5 -8 3 -17 2 -21 -1z"/>
<path d="M3790 1645 c0 -5 5 -17 10 -25 5 -8 10 -10 10 -5 0 6 -5 17 -10 25
-5 8 -10 11 -10 5z"/>
<path d="M1100 1620 l-25 -21 28 12 c15 7 27 16 27 21 0 11 -1 10 -30 -12z"/>
<path d="M1350 1507 l-23 -32 29 27 c15 15 26 30 23 33 -3 2 -16 -10 -29 -28z"/>
<path d="M1198 1458 c6 -6 18 -8 28 -6 14 3 12 5 -9 10 -19 3 -25 2 -19 -4z"/>
<path d="M1275 1460 l-30 -8 27 -1 c15 0 30 4 33 9 3 6 5 9 3 9 -2 -1 -16 -5
-33 -9z"/>
<path d="M3178 1313 c7 -3 16 -2 19 1 4 3 -2 6 -13 5 -11 0 -14 -3 -6 -6z"/>
<path d="M1788 1303 c7 -3 16 -2 19 1 4 3 -2 6 -13 5 -11 0 -14 -3 -6 -6z"/>
<path d="M3218 1303 c6 -2 18 -2 25 0 6 3 1 5 -13 5 -14 0 -19 -2 -12 -5z"/>
<path d="M3268 1293 c7 -3 16 -2 19 1 4 3 -2 6 -13 5 -11 0 -14 -3 -6 -6z"/>
<path d="M3308 1283 c7 -3 16 -2 19 1 4 3 -2 6 -13 5 -11 0 -14 -3 -6 -6z"/>
<path d="M3348 1273 c7 -3 16 -2 19 1 4 3 -2 6 -13 5 -11 0 -14 -3 -6 -6z"/>
<path d="M1489 1122 c-15 -9 -32 -24 -38 -34 -11 -18 -11 -18 16 -2 l28 18
-28 -31 c-23 -25 -27 -37 -23 -69 2 -21 5 -42 5 -46 1 -5 6 -8 12 -8 8 0 7 6
-2 17 -13 15 -12 15 8 5 27 -15 70 -16 78 -2 3 6 0 10 -8 10 -8 0 -13 10 -13
23 1 16 -5 23 -22 25 -36 5 -7 32 34 32 63 0 84 -55 39 -104 -13 -14 -33 -26
-44 -26 -11 0 -22 -4 -25 -9 -4 -5 9 -5 31 -1 53 12 78 42 78 93 0 36 3 42 23
45 13 2 58 -11 100 -29 87 -36 140 -53 126 -40 -11 10 -118 55 -186 79 -27 9
-48 21 -48 28 0 19 -47 44 -82 43 -18 0 -45 -8 -59 -17z"/>
<path d="M3448 1030 c-10 -23 -6 -52 5 -41 5 5 7 19 5 32 -3 17 -6 20 -10 9z"/>
<path d="M3450 965 c0 -2 10 -10 23 -16 20 -11 21 -11 8 4 -13 16 -31 23 -31
12z"/>
</g>
</svg>
